<svg xmlns="http://www.w3.org/2000/svg" viewBox="0 0 42 42"><g fill="none" fill-rule="evenodd"><path fill="#8549FC" fill-rule="nonzero" d="M11 16.21V26c.4.31 1.1.64 1.99.93A27.1 27.1 0 0 0 21 28c3.08 0 5.95-.4 8.01-1.07A7.1 7.1 0 0 0 31 26v-9.79C28.85 17.3 25.17 18 21 18s-7.85-.71-10-1.79zM33 14v12c0 2.2-5.37 4-12 4S9 28.2 9 26V14c0-2.2 5.37-4 12-4s12 1.8 12 4zm-3.99-.93A27.1 27.1 0 0 0 21 12c-3.08 0-5.95.4-8.01 1.07-.9.3-1.58.62-1.99.93.4.31 1.1.64 1.99.93A27.1 27.1 0 0 0 21 16c3.08 0 5.95-.4 8.01-1.07A7.1 7.1 0 0 0 31 14a7.1 7.1 0 0 0-1.99-.93zM15 24.5a1 1 0 0 1-2 0v-5a1 1 0 0 1 2 0v5zm7 1a1 1 0 0 1-2 0v-5a1 1 0 0 1 2 0v5zm7-1a1 1 0 0 1-2 0v-5a1 1 0 0 1 2 0v5z"/><rect width="42" height="42"/></g></svg>
